<mxfile host="app.diagrams.net" agent="Mozilla/5.0 (Windows NT 10.0; Win64; x64) AppleWebKit/537.36 (KHTML, like Gecko) Chrome/140.0.0.0 Safari/537.36" version="28.2.5">
  <diagram name="Página-1" id="_a160yBw-XByxBJMrZp7">
    <mxGraphModel dx="475" dy="261" grid="1" gridSize="10" guides="1" tooltips="1" connect="1" arrows="1" fold="1" page="1" pageScale="1" pageWidth="827" pageHeight="1169" math="0" shadow="0">
      <root>
        <mxCell id="0" />
        <mxCell id="1" parent="0" />
        <mxCell id="BI5MkdXVmG4Qt5VkmnoV-7" style="rounded=0;orthogonalLoop=1;jettySize=auto;html=1;entryX=0.5;entryY=0;entryDx=0;entryDy=0;" edge="1" parent="1" source="BI5MkdXVmG4Qt5VkmnoV-1" target="BI5MkdXVmG4Qt5VkmnoV-2">
          <mxGeometry relative="1" as="geometry" />
        </mxCell>
        <mxCell id="BI5MkdXVmG4Qt5VkmnoV-8" style="edgeStyle=orthogonalEdgeStyle;rounded=0;orthogonalLoop=1;jettySize=auto;html=1;entryX=0.5;entryY=0;entryDx=0;entryDy=0;" edge="1" parent="1" source="BI5MkdXVmG4Qt5VkmnoV-1" target="BI5MkdXVmG4Qt5VkmnoV-3">
          <mxGeometry relative="1" as="geometry" />
        </mxCell>
        <mxCell id="BI5MkdXVmG4Qt5VkmnoV-9" style="rounded=0;orthogonalLoop=1;jettySize=auto;html=1;entryX=0.5;entryY=0;entryDx=0;entryDy=0;" edge="1" parent="1" source="BI5MkdXVmG4Qt5VkmnoV-1" target="BI5MkdXVmG4Qt5VkmnoV-6">
          <mxGeometry relative="1" as="geometry" />
        </mxCell>
        <mxCell id="BI5MkdXVmG4Qt5VkmnoV-1" value="Início" style="ellipse;whiteSpace=wrap;html=1;" vertex="1" parent="1">
          <mxGeometry x="320" y="40" width="40" height="40" as="geometry" />
        </mxCell>
        <mxCell id="BI5MkdXVmG4Qt5VkmnoV-10" style="rounded=0;orthogonalLoop=1;jettySize=auto;html=1;entryX=0.5;entryY=0;entryDx=0;entryDy=0;" edge="1" parent="1" source="BI5MkdXVmG4Qt5VkmnoV-2" target="BI5MkdXVmG4Qt5VkmnoV-5">
          <mxGeometry relative="1" as="geometry" />
        </mxCell>
        <mxCell id="BI5MkdXVmG4Qt5VkmnoV-11" style="rounded=0;orthogonalLoop=1;jettySize=auto;html=1;entryX=0.5;entryY=0;entryDx=0;entryDy=0;" edge="1" parent="1" source="BI5MkdXVmG4Qt5VkmnoV-2" target="BI5MkdXVmG4Qt5VkmnoV-4">
          <mxGeometry relative="1" as="geometry" />
        </mxCell>
        <mxCell id="BI5MkdXVmG4Qt5VkmnoV-2" value="&lt;font style=&quot;font-size: 11px;&quot;&gt;Positivo&lt;/font&gt;" style="ellipse;whiteSpace=wrap;html=1;" vertex="1" parent="1">
          <mxGeometry x="440" y="160" width="40" height="40" as="geometry" />
        </mxCell>
        <mxCell id="BI5MkdXVmG4Qt5VkmnoV-3" value="&lt;font style=&quot;font-size: 10px;&quot;&gt;Negativo&lt;/font&gt;" style="ellipse;whiteSpace=wrap;html=1;" vertex="1" parent="1">
          <mxGeometry x="320" y="160" width="40" height="40" as="geometry" />
        </mxCell>
        <mxCell id="BI5MkdXVmG4Qt5VkmnoV-4" value="Par" style="ellipse;whiteSpace=wrap;html=1;" vertex="1" parent="1">
          <mxGeometry x="480" y="240" width="40" height="40" as="geometry" />
        </mxCell>
        <mxCell id="BI5MkdXVmG4Qt5VkmnoV-5" value="Impar" style="ellipse;whiteSpace=wrap;html=1;" vertex="1" parent="1">
          <mxGeometry x="400" y="240" width="40" height="40" as="geometry" />
        </mxCell>
        <mxCell id="BI5MkdXVmG4Qt5VkmnoV-6" value="&lt;font style=&quot;font-size: 10px;&quot;&gt;Zero&lt;/font&gt;" style="ellipse;whiteSpace=wrap;html=1;" vertex="1" parent="1">
          <mxGeometry x="200" y="160" width="40" height="40" as="geometry" />
        </mxCell>
        <mxCell id="BI5MkdXVmG4Qt5VkmnoV-12" style="rounded=0;orthogonalLoop=1;jettySize=auto;html=1;entryX=0.5;entryY=0;entryDx=0;entryDy=0;" edge="1" source="BI5MkdXVmG4Qt5VkmnoV-15" target="BI5MkdXVmG4Qt5VkmnoV-18" parent="1">
          <mxGeometry relative="1" as="geometry" />
        </mxCell>
        <mxCell id="BI5MkdXVmG4Qt5VkmnoV-13" style="edgeStyle=orthogonalEdgeStyle;rounded=0;orthogonalLoop=1;jettySize=auto;html=1;entryX=0.5;entryY=0;entryDx=0;entryDy=0;" edge="1" source="BI5MkdXVmG4Qt5VkmnoV-15" target="BI5MkdXVmG4Qt5VkmnoV-19" parent="1">
          <mxGeometry relative="1" as="geometry" />
        </mxCell>
        <mxCell id="BI5MkdXVmG4Qt5VkmnoV-14" style="rounded=0;orthogonalLoop=1;jettySize=auto;html=1;entryX=0.5;entryY=0;entryDx=0;entryDy=0;" edge="1" source="BI5MkdXVmG4Qt5VkmnoV-15" target="BI5MkdXVmG4Qt5VkmnoV-22" parent="1">
          <mxGeometry relative="1" as="geometry" />
        </mxCell>
        <mxCell id="BI5MkdXVmG4Qt5VkmnoV-15" value="Início" style="ellipse;whiteSpace=wrap;html=1;" vertex="1" parent="1">
          <mxGeometry x="320" y="320" width="40" height="40" as="geometry" />
        </mxCell>
        <mxCell id="BI5MkdXVmG4Qt5VkmnoV-16" style="rounded=0;orthogonalLoop=1;jettySize=auto;html=1;entryX=0.5;entryY=0;entryDx=0;entryDy=0;exitX=0.5;exitY=1;exitDx=0;exitDy=0;" edge="1" source="BI5MkdXVmG4Qt5VkmnoV-19" target="BI5MkdXVmG4Qt5VkmnoV-21" parent="1">
          <mxGeometry relative="1" as="geometry" />
        </mxCell>
        <mxCell id="BI5MkdXVmG4Qt5VkmnoV-17" style="rounded=0;orthogonalLoop=1;jettySize=auto;html=1;entryX=0.5;entryY=0;entryDx=0;entryDy=0;exitX=0.5;exitY=1;exitDx=0;exitDy=0;" edge="1" source="BI5MkdXVmG4Qt5VkmnoV-18" target="BI5MkdXVmG4Qt5VkmnoV-20" parent="1">
          <mxGeometry relative="1" as="geometry" />
        </mxCell>
        <mxCell id="BI5MkdXVmG4Qt5VkmnoV-18" value="&lt;font style=&quot;font-size: 10px;&quot;&gt;X&amp;gt;100&lt;/font&gt;" style="ellipse;whiteSpace=wrap;html=1;" vertex="1" parent="1">
          <mxGeometry x="440" y="440" width="40" height="40" as="geometry" />
        </mxCell>
        <mxCell id="BI5MkdXVmG4Qt5VkmnoV-19" value="X&amp;gt;50" style="ellipse;whiteSpace=wrap;html=1;" vertex="1" parent="1">
          <mxGeometry x="320" y="440" width="40" height="40" as="geometry" />
        </mxCell>
        <mxCell id="BI5MkdXVmG4Qt5VkmnoV-20" value="Alto" style="ellipse;whiteSpace=wrap;html=1;" vertex="1" parent="1">
          <mxGeometry x="440" y="520" width="40" height="40" as="geometry" />
        </mxCell>
        <mxCell id="BI5MkdXVmG4Qt5VkmnoV-21" value="Médio" style="ellipse;whiteSpace=wrap;html=1;" vertex="1" parent="1">
          <mxGeometry x="320" y="520" width="40" height="40" as="geometry" />
        </mxCell>
        <mxCell id="BI5MkdXVmG4Qt5VkmnoV-22" value="Baixo" style="ellipse;whiteSpace=wrap;html=1;" vertex="1" parent="1">
          <mxGeometry x="200" y="440" width="40" height="40" as="geometry" />
        </mxCell>
      </root>
    </mxGraphModel>
  </diagram>
</mxfile>
